{"asset":{"version":"2.0","generator":"Blockbench 5.0.7 glTF exporter"},"scenes":[{"nodes":[13],"name":"blockbench_export"}],"scene":0,"nodes":[{"translation":[0,-0.625,0],"name":"torso","mesh":0},{"name":"neck","mesh":1},{"name":"head","mesh":2},{"translation":[0,0.125,0],"name":"head","children":[2]},{"translation":[0,-0.0625,0],"name":"neck","children":[1,3]},{"translation":[0,-0.625,0],"name":"right_arm","mesh":3},{"translation":[0,-0.0625,0.375],"name":"right_arm","children":[5]},{"translation":[0,-0.625,0],"name":"left_arm","mesh":4},{"translation":[0,-0.0625,-0.375],"name":"left_arm","children":[7]},{"translation":[0,-0.625,0],"name":"left_leg","mesh":5},{"translation":[0,-0.9375,-0.125],"name":"left_leg","children":[9]},{"translation":[0,-0.625,0],"name":"right_leg","mesh":6},{"translation":[0,-0.9375,0.125],"name":"right_leg","children":[11]},{"translation":[0,1.8125,0],"name":"torso","children":[0,4,6,8,10,12]}],"bufferViews":[{"buffer":0,"byteOffset":0,"byteLength":480,"target":34962,"byteStride":12},{"buffer":0,"byteOffset":480,"byteLength":480,"target":34962,"byteStride":12},{"buffer":0,"byteOffset":960,"byteLength":320,"target":34962,"byteStride":8},{"buffer":0,"byteOffset":1280,"byteLength":120,"target":34963},{"buffer":0,"byteOffset":1400,"byteLength":288,"target":34962,"byteStride":12},{"buffer":0,"byteOffset":1688,"byteLength":288,"target":34962,"byteStride":12},{"buffer":0,"byteOffset":1976,"byteLength":192,"target":34962,"byteStride":8},{"buffer":0,"byteOffset":2168,"byteLength":72,"target":34963},{"buffer":0,"byteOffset":2240,"byteLength":288,"target":34962,"byteStride":12},{"buffer":0,"byteOffset":2528,"byteLength":288,"target":34962,"byteStride":12},{"buffer":0,"byteOffset":2816,"byteLength":192,"target":34962,"byteStride":8},{"buffer":0,"byteOffset":3008,"byteLength":72,"target":34963},{"buffer":0,"byteOffset":3080,"byteLength":288,"target":34962,"byteStride":12},{"buffer":0,"byteOffset":3368,"byteLength":288,"target":34962,"byteStride":12},{"buffer":0,"byteOffset":3656,"byteLength":192,"target":34962,"byteStride":8},{"buffer":0,"byteOffset":3848,"byteLength":72,"target":34963},{"buffer":0,"byteOffset":3920,"byteLength":288,"target":34962,"byteStride":12},{"buffer":0,"byteOffset":4208,"byteLength":288,"target":34962,"byteStride":12},{"buffer":0,"byteOffset":4496,"byteLength":192,"target":34962,"byteStride":8},{"buffer":0,"byteOffset":4688,"byteLength":72,"target":34963},{"buffer":0,"byteOffset":4760,"byteLength":288,"target":34962,"byteStride":12},{"buffer":0,"byteOffset":5048,"byteLength":288,"target":34962,"byteStride":12},{"buffer":0,"byteOffset":5336,"byteLength":192,"target":34962,"byteStride":8},{"buffer":0,"byteOffset":5528,"byteLength":72,"target":34963},{"buffer":0,"byteOffset":5600,"byteLength":288,"target":34962,"byteStride":12},{"buffer":0,"byteOffset":5888,"byteLength":288,"target":34962,"byteStride":12},{"buffer":0,"byteOffset":6176,"byteLength":192,"target":34962,"byteStride":8},{"buffer":0,"byteOffset":6368,"byteLength":72,"target":34963},{"buffer":0,"byteOffset":6440,"byteLength":632},{"buffer":0,"byteOffset":7072,"byteLength":1896},{"buffer":0,"byteOffset":8968,"byteLength":632},{"buffer":0,"byteOffset":9600,"byteLength":2528},{"buffer":0,"byteOffset":12128,"byteLength":632},{"buffer":0,"byteOffset":12760,"byteLength":2528},{"buffer":0,"byteOffset":15288,"byteLength":632},{"buffer":0,"byteOffset":15920,"byteLength":1896},{"buffer":0,"byteOffset":17816,"byteLength":632},{"buffer":0,"byteOffset":18448,"byteLength":1896},{"buffer":0,"byteOffset":20344,"byteLength":632},{"buffer":0,"byteOffset":20976,"byteLength":1896},{"buffer":0,"byteOffset":22872,"byteLength":8},{"buffer":0,"byteOffset":22880,"byteLength":32},{"buffer":0,"byteOffset":22912,"byteLength":4},{"buffer":0,"byteOffset":22916,"byteLength":12},{"buffer":0,"byteOffset":22928,"byteLength":4},{"buffer":0,"byteOffset":22932,"byteLength":16},{"buffer":0,"byteOffset":22948,"byteLength":4},{"buffer":0,"byteOffset":22952,"byteLength":12},{"buffer":0,"byteOffset":22964,"byteLength":632},{"buffer":0,"byteOffset":23596,"byteLength":1896},{"buffer":0,"byteOffset":25492,"byteLength":632},{"buffer":0,"byteOffset":26124,"byteLength":1896}],"buffers":[{"byteLength":28020,"uri":"data:application/octet-stream;base64,"}],"accessors":[{"bufferView":0,"componentType":5126,"count":40,"max":[0.125,0.6875,0.25],"min":[-0.125,-0.1875,-0.25],"type":"VEC3"},{"bufferView":1,"componentType":5126,"count":40,"max":[0.9993628263473511,1,0.9974586963653564],"min":[-0.9993628263473511,-1,-0.9974586963653564],"type":"VEC3"},{"bufferView":2,"componentType":5126,"count":40,"max":[0.71875,0.484375],"min":[0,0],"type":"VEC2"},{"bufferView":3,"componentType":5123,"count":60,"max":[39],"min":[0],"type":"SCALAR"},{"bufferView":4,"componentType":5126,"count":24,"max":[0.0625,0.4375,0.0625],"min":[-0.0625,0.0625,-0.0625],"type":"VEC3"},{"bufferView":5,"componentType":5126,"count":24,"max":[1,1,1],"min":[-1,-1,-1],"type":"VEC3"},{"bufferView":6,"componentType":5126,"count":24,"max":[0.765625,0.828125],"min":[0.46875,0.234375],"type":"VEC2"},{"bufferView":7,"componentType":5123,"count":36,"max":[23],"min":[0],"type":"SCALAR"},{"bufferView":8,"componentType":5126,"count":24,"max":[0.1875,0.4375,0.1875],"min":[-0.1875,0.0625,-0.1875],"type":"VEC3"},{"bufferView":9,"componentType":5126,"count":24,"max":[1,1,1],"min":[-1,-1,-1],"type":"VEC3"},{"bufferView":10,"componentType":5126,"count":24,"max":[0.71875,0.640625],"min":[0.546875,0],"type":"VEC2"},{"bufferView":11,"componentType":5123,"count":36,"max":[23],"min":[0],"type":"SCALAR"},{"bufferView":12,"componentType":5126,"count":24,"max":[0.125,0.6875,0.125],"min":[-0.125,-0.1875,-0.125],"type":"VEC3"},{"bufferView":13,"componentType":5126,"count":24,"max":[1,0.976900041103363,1],"min":[-1,-1,-1],"type":"VEC3"},{"bufferView":14,"componentType":5126,"count":24,"max":[0.71875,0.734375],"min":[0,0.5],"type":"VEC2"},{"bufferView":15,"componentType":5123,"count":36,"max":[23],"min":[0],"type":"SCALAR"},{"bufferView":16,"componentType":5126,"count":24,"max":[0.125,0.6875,0.125],"min":[-0.125,-0.1875,-0.125],"type":"VEC3"},{"bufferView":17,"componentType":5126,"count":24,"max":[1,0.976900041103363,1],"min":[-1,-1,-1],"type":"VEC3"},{"bufferView":18,"componentType":5126,"count":24,"max":[0.796875,0.75],"min":[0.15625,0],"type":"VEC2"},{"bufferView":19,"componentType":5123,"count":36,"max":[23],"min":[0],"type":"SCALAR"},{"bufferView":20,"componentType":5126,"count":24,"max":[0.125,0.75,0.125],"min":[-0.125,-0.25,-0.125],"type":"VEC3"},{"bufferView":21,"componentType":5126,"count":24,"max":[1,1,1],"min":[-1,-1,-1],"type":"VEC3"},{"bufferView":22,"componentType":5126,"count":24,"max":[0.796875,0.71875],"min":[0.3125,0],"type":"VEC2"},{"bufferView":23,"componentType":5123,"count":36,"max":[23],"min":[0],"type":"SCALAR"},{"bufferView":24,"componentType":5126,"count":24,"max":[0.125,0.75,0.125],"min":[-0.125,-0.25,-0.125],"type":"VEC3"},{"bufferView":25,"componentType":5126,"count":24,"max":[1,1,1],"min":[-1,-1,-1],"type":"VEC3"},{"bufferView":26,"componentType":5126,"count":24,"max":[0.71875,0.71875],"min":[0,0.25],"type":"VEC2"},{"bufferView":27,"componentType":5123,"count":36,"max":[23],"min":[0],"type":"SCALAR"},{"bufferView":28,"componentType":5126,"count":158,"max":[8],"min":[0],"type":"SCALAR"},{"bufferView":29,"componentType":5126,"count":158,"max":[0,1.8125,0],"min":[0,1.787500023841858,0],"type":"VEC3"},{"bufferView":30,"componentType":5126,"count":158,"max":[8],"min":[0],"type":"SCALAR"},{"bufferView":31,"componentType":5126,"count":158,"max":[0,0,0,1],"min":[-0.03489949554204941,0,0,0.9993908405303955],"type":"VEC4"},{"bufferView":32,"componentType":5126,"count":158,"max":[8],"min":[0],"type":"SCALAR"},{"bufferView":33,"componentType":5126,"count":158,"max":[0.017452405765652657,0,0,1],"min":[0,0,0,0.9998477101325989],"type":"VEC4"},{"bufferView":34,"componentType":5126,"count":158,"max":[8],"min":[0],"type":"SCALAR"},{"bufferView":35,"componentType":5126,"count":158,"max":[0,-0.9125000238418579,-0.125],"min":[0,-0.9375,-0.125],"type":"VEC3"},{"bufferView":36,"componentType":5126,"count":158,"max":[8],"min":[0],"type":"SCALAR"},{"bufferView":37,"componentType":5126,"count":158,"max":[0,-0.9125000238418579,0.125],"min":[0,-0.9375,0.125],"type":"VEC3"},{"bufferView":38,"componentType":5126,"count":158,"max":[8],"min":[0],"type":"SCALAR"},{"bufferView":39,"componentType":5126,"count":158,"max":[0,1.8125,0],"min":[0,1.787500023841858,0],"type":"VEC3"},{"bufferView":40,"componentType":5126,"count":2,"max":[7.583333492279053],"min":[0],"type":"SCALAR"},{"bufferView":41,"componentType":5126,"count":2,"max":[0,0.04624699801206589,0.7071067690849304,0.7071067690849304],"min":[-0.04624699801206589,0,0.7055928111076355,0.7055928111076355],"type":"VEC4"},{"bufferView":42,"componentType":5126,"count":1,"max":[0],"min":[0],"type":"SCALAR"},{"bufferView":43,"componentType":5126,"count":1,"max":[0.012500000186264515,-0.0625,0.28125],"min":[0.012500000186264515,-0.0625,0.28125],"type":"VEC3"},{"bufferView":44,"componentType":5126,"count":1,"max":[0],"min":[0],"type":"SCALAR"},{"bufferView":45,"componentType":5126,"count":1,"max":[-0.27059805393218994,-3.1558089474970075e-13,0.6532815098762512,0.7071067690849304],"min":[-0.27059805393218994,-3.1558089474970075e-13,0.6532815098762512,0.7071067690849304],"type":"VEC4"},{"bufferView":46,"componentType":5126,"count":1,"max":[0],"min":[0],"type":"SCALAR"},{"bufferView":47,"componentType":5126,"count":1,"max":[0.0625,-0.0625,-0.125],"min":[0.0625,-0.0625,-0.125],"type":"VEC3"},{"bufferView":48,"componentType":5126,"count":158,"max":[8],"min":[0],"type":"SCALAR"},{"bufferView":49,"componentType":5126,"count":158,"max":[0,-0.9125000238418579,-0.125],"min":[0,-0.9375,-0.125],"type":"VEC3"},{"bufferView":50,"componentType":5126,"count":158,"max":[8],"min":[0],"type":"SCALAR"},{"bufferView":51,"componentType":5126,"count":158,"max":[0,-0.9125000238418579,0.125],"min":[0,-0.9375,0.125],"type":"VEC3"}],"materials":[{"pbrMetallicRoughness":{"metallicFactor":0,"roughnessFactor":1,"baseColorTexture":{"index":0}},"alphaMode":"MASK","alphaCutoff":0.05,"doubleSided":true}],"textures":[{"sampler":0,"source":0,"name":"character_texture.png"}],"samplers":[{"magFilter":9728,"minFilter":9728,"wrapS":33071,"wrapT":33071}],"images":[{"mimeType":"image/png","name":"character_test.png","uri":"character_test.png"}],"meshes":[{"primitives":[{"mode":4,"attributes":{"POSITION":0,"NORMAL":1,"TEXCOORD_0":2},"indices":3,"material":0}]},{"primitives":[{"mode":4,"attributes":{"POSITION":4,"NORMAL":5,"TEXCOORD_0":6},"indices":7,"material":0}]},{"primitives":[{"mode":4,"attributes":{"POSITION":8,"NORMAL":9,"TEXCOORD_0":10},"indices":11,"material":0}]},{"primitives":[{"mode":4,"attributes":{"POSITION":12,"NORMAL":13,"TEXCOORD_0":14},"indices":15,"material":0}]},{"primitives":[{"mode":4,"attributes":{"POSITION":16,"NORMAL":17,"TEXCOORD_0":18},"indices":19,"material":0}]},{"primitives":[{"mode":4,"attributes":{"POSITION":20,"NORMAL":21,"TEXCOORD_0":22},"indices":23,"material":0}]},{"primitives":[{"mode":4,"attributes":{"POSITION":24,"NORMAL":25,"TEXCOORD_0":26},"indices":27,"material":0}]}],"animations":[{"name":"idle","samplers":[{"input":28,"output":29,"interpolation":"LINEAR"},{"input":30,"output":31,"interpolation":"LINEAR"},{"input":32,"output":33,"interpolation":"LINEAR"},{"input":34,"output":35,"interpolation":"LINEAR"},{"input":36,"output":37,"interpolation":"LINEAR"}],"channels":[{"sampler":0,"target":{"node":13,"path":"translation"}},{"sampler":1,"target":{"node":6,"path":"rotation"}},{"sampler":2,"target":{"node":8,"path":"rotation"}},{"sampler":3,"target":{"node":10,"path":"translation"}},{"sampler":4,"target":{"node":12,"path":"translation"}}]},{"name":"pistol_idle","samplers":[{"input":38,"output":39,"interpolation":"LINEAR"},{"input":40,"output":41,"interpolation":"LINEAR"},{"input":42,"output":43,"interpolation":"LINEAR"},{"input":44,"output":45,"interpolation":"LINEAR"},{"input":46,"output":47,"interpolation":"LINEAR"},{"input":48,"output":49,"interpolation":"LINEAR"},{"input":50,"output":51,"interpolation":"LINEAR"}],"channels":[{"sampler":0,"target":{"node":13,"path":"translation"}},{"sampler":1,"target":{"node":6,"path":"rotation"}},{"sampler":2,"target":{"node":6,"path":"translation"}},{"sampler":3,"target":{"node":8,"path":"rotation"}},{"sampler":4,"target":{"node":8,"path":"translation"}},{"sampler":5,"target":{"node":10,"path":"translation"}},{"sampler":6,"target":{"node":12,"path":"translation"}}]}]}