# Made in Blockbench 5.0.7
mtllib ship_collision.mtl

o base
v 0 0.625 0.5
v 0 0.375 -0.4375
v 0 0.25 -0.75
v 0 0 0.25
v 0 0.625 0.25
v 0 0 0
v -0.75 0.5 0.75
v -0.75 0.5 0.5625
v -0.75 0 0.5
v -0.75 0 0.25
v -0.75 0.5 0.625
v -0.75 0 0.375
v 0.75 0.5 0.75
v 0.75 0.5 0.5625
v 0.75 0 0.5
v 0.75 0 0.25
v 0.75 0.5 0.625
v 0.75 0 0.375
vt 0.828125 0.984375
vt 0.765625 0.859375
vt 0.796875 0.859375
vt 0.859375 0.984375
vt 0.2698233341141792 0.625
vt 0.3635733341141792 0.4349140625
vt 0.3948233341141792 0.4349140625
vt 0.3323233341141792 0.625
vt 0 0.96875
vt 0.1875 0.875
vt 0.1875 0.9375
vt 0 1
vt 0.854365737604374 0.421875
vt 0.859375 0.59375
vt 0.6563590922163687 0.59375
vt 0.65625 0.4513908532354388
vt 0.08758651945647802 0.6096144361235127
vt 0.003614165885820808 0.6042534270920167
vt 0.22742950336957204 0.37738610856674504
vt 0.34267225989163 0.4394242437235091
vt 0.36357341794169534 0.4349138925327254
vt 0.2698233341141792 0.625
vt 0.08758651945647802 0.6096144361235127
vt 0.34880165948989267 0.43533478072512555
vt 0.765625 0.859375
vt 0.828125 0.984375
vt 0.8125 0.984375
vt 0.734375 0.859375
vt 0.1875 0.875
vt 0 0.96875
vt 0 0.9375
vt 0.1875 0.6875
vt 0.0625 0.6875
vt 0.09375 0.6875
vt 0.03125 0.8125
vt 0 0.8125
vt 0.3629891658858208 0.7942890625
vt 0.3942391658858208 0.7942890625
vt 0.4879891658858208 0.984375
vt 0.4254891658858208 0.984375
vt 0.1875 0.9375
vt 0.1875 0.875
vt 0.375 0.96875
vt 0.375 1
vt 0.453125 0.171875
vt 0.453125 0.375
vt 0.28125 0.3701183043052493
vt 0.31013564685489337 0.171875
vt 0.530382996630428 0.736761108566745
vt 0.7541983341141791 0.9636284270920167
vt 0.670225980543522 0.9689894361235127
vt 0.41514024010837 0.7987992437235091
vt 0.670225980543522 0.9689894361235127
vt 0.4879891658858208 0.984375
vt 0.39423908205830466 0.7942888925327254
vt 0.40901084051010733 0.7947097807251255
vt 0.046875 0.8125
vt 0.03125 0.8125
vt 0.09375 0.6875
vt 0.125 0.6875
vt 0.375 0.9375
vt 0.375 0.96875
vt 0.1875 0.875
vt 0.1875 0.6875
vn -1 0 0
vn -0.1643989873053573 0.9863939238321437 0
vn 0 -1 0
vn 0.3481553119113957 -0.3481553119113957 0.8703882797784892
vn -0.6269156688215358 0.7233642332556182 -0.2893456933022473
vn -0.31123737784096195 0.8931159538044996 -0.3247694377470908
vn -1 0 0
vn 0 -1 0
vn 1 0 0
vn 0.1643989873053573 0.9863939238321437 0
vn 0 -1 0
vn -0.3481553119113957 -0.3481553119113957 0.8703882797784892
vn 0.6269156688215358 0.7233642332556182 -0.2893456933022473
vn 0.31123737784096195 0.8931159538044996 -0.3247694377470908
vn 1 0 0
vn 0 -1 0
usemtl m_9c556b56-2589-5b56-c0cb-6db10339b833
f 11/1/1 12/2/1 9/3/1 7/4/1
f 5/5/2 11/6/2 7/7/2 1/8/2
f 12/9/3 6/10/3 4/11/3 9/12/3
f 4/13/4 1/14/4 7/15/4 9/16/4
f 2/17/5 3/18/5 10/19/5 8/20/5
f 11/21/6 5/22/6 2/23/6 8/24/6
f 12/25/7 11/26/7 8/27/7 10/28/7
f 6/29/8 12/30/8 10/31/8 3/32/8
f 15/33/9 18/34/9 17/35/9 13/36/9
f 13/37/10 17/38/10 5/39/10 1/40/10
f 4/41/11 6/42/11 18/43/11 15/44/11
f 13/45/12 1/46/12 4/47/12 15/48/12
f 16/49/13 3/50/13 2/51/13 14/52/13
f 2/53/14 5/54/14 17/55/14 14/56/14
f 14/57/15 17/58/15 18/59/15 16/60/15
f 16/61/16 18/62/16 6/63/16 3/64/16
o boost_thruster
v 0.1875 0.4375 0.625
v 0.1875 0.4375 0.375
v 0.1875 0.0625 0.625
v 0.1875 0.0625 0.375
v -0.1875 0.4375 0.625
v -0.1875 0.4375 0.375
v -0.1875 0.0625 0.625
v -0.1875 0.0625 0.375
vt 0.28125 0.234375
vt 0.21875 0.234375
vt 0.21875 0.140625
vt 0.28125 0.140625
vt 0.765625 0.609375
vt 0.859375 0.609375
vt 0.859375 0.671875
vt 0.765625 0.671875
vt 0.671875 0.171875
vt 0.671875 0.234375
vt 0.578125 0.234375
vt 0.578125 0.171875
vt 0.09375 0.375
vt 0.09375 0.46875
vt 0 0.46875
vt 0 0.375
vt 0.5625 0.234375
vt 0.46875 0.234375
vt 0.46875 0.140625
vt 0.5625 0.140625
vt 0.84375 0.3125
vt 0.84375 0.40625
vt 0.78125 0.40625
vt 0.78125 0.3125
vn 1 0 0
vn 0 1 0
vn 0 -1 0
vn 0 0 1
vn 0 0 -1
vn -1 0 0
usemtl m_9c556b56-2589-5b56-c0cb-6db10339b833
f 20/65/17 19/66/17 21/67/17 22/68/17
f 23/69/18 19/70/18 20/71/18 24/72/18
f 22/73/19 21/74/19 25/75/19 26/76/19
f 21/77/20 19/78/20 23/79/20 25/80/20
f 24/81/21 20/82/21 22/83/21 26/84/21
f 25/85/22 23/86/22 24/87/22 26/88/22
o left_thruster
v -0.21875 0.34375 0.625
v -0.21875 0.34375 0.375
v -0.21875 0.15625 0.625
v -0.21875 0.15625 0.375
v -0.40625 0.34375 0.625
v -0.40625 0.34375 0.375
v -0.40625 0.15625 0.625
v -0.40625 0.15625 0.375
vt 0.0625 0.671875
vt 0 0.671875
vt 0 0.625
vt 0.0625 0.625
vt 0.78125 0.15625
vt 0.828125 0.15625
vt 0.828125 0.21875
vt 0.78125 0.21875
vt 0.203125 0.09375
vt 0.203125 0.15625
vt 0.15625 0.15625
vt 0.15625 0.09375
vt 0.515625 0.25
vt 0.515625 0.296875
vt 0.46875 0.296875
vt 0.46875 0.25
vt 0.90625 0.921875
vt 0.859375 0.921875
vt 0.859375 0.875
vt 0.90625 0.875
vt 0.359375 0.109375
vt 0.359375 0.15625
vt 0.296875 0.15625
vt 0.296875 0.109375
vn 1 0 0
vn 0 1 0
vn 0 -1 0
vn 0 0 1
vn 0 0 -1
vn -1 0 0
usemtl m_9c556b56-2589-5b56-c0cb-6db10339b833
f 28/89/23 27/90/23 29/91/23 30/92/23
f 31/93/24 27/94/24 28/95/24 32/96/24
f 30/97/25 29/98/25 33/99/25 34/100/25
f 29/101/26 27/102/26 31/103/26 33/104/26
f 32/105/27 28/106/27 30/107/27 34/108/27
f 33/109/28 31/110/28 32/111/28 34/112/28
o right_thruster
v 0.21875 0.34375 0.625
v 0.21875 0.34375 0.375
v 0.21875 0.15625 0.625
v 0.21875 0.15625 0.375
v 0.40625 0.34375 0.625
v 0.40625 0.34375 0.375
v 0.40625 0.15625 0.625
v 0.40625 0.15625 0.375
vt 0.4375 0.109375
vt 0.4375 0.15625
vt 0.375 0.15625
vt 0.375 0.109375
vt 0.578125 0.15625
vt 0.578125 0.09375
vt 0.625 0.09375
vt 0.625 0.15625
vt 0.890625 0.234375
vt 0.84375 0.234375
vt 0.84375 0.171875
vt 0.890625 0.171875
vt 0.90625 0.40625
vt 0.859375 0.40625
vt 0.859375 0.359375
vt 0.90625 0.359375
vt 0.828125 0.09375
vt 0.828125 0.140625
vt 0.78125 0.140625
vt 0.78125 0.09375
vt 0.90625 0.15625
vt 0.84375 0.15625
vt 0.84375 0.109375
vt 0.90625 0.109375
vn -1 0 0
vn 0 1 0
vn 0 -1 0
vn 0 0 1
vn 0 0 -1
vn 1 0 0
usemtl m_9c556b56-2589-5b56-c0cb-6db10339b833
f 37/113/29 35/114/29 36/115/29 38/116/29
f 36/117/30 35/118/30 39/119/30 40/120/30
f 41/121/31 37/122/31 38/123/31 42/124/31
f 39/125/32 35/126/32 37/127/32 41/128/32
f 38/129/33 36/130/33 40/131/33 42/132/33
f 40/133/34 39/134/34 41/135/34 42/136/34
o wings
v 0 0.4375 0.3333333333333333
v 0 0.3375 -0.29166666666666663
v 0 0.2875 -0.5
v 0 0.1875 0.16666666666666666
v 0 0.4375 0.16666666666666666
v 0 0.1875 0
v 1.5625 0.3875 0.5
v 1 0.3875 0.375
v 1.5625 0.1875 0.3333333333333333
v 1 0.1875 0.16666666666666666
v 1.5625 0.3875 0.41666666666666663
v 1.5625 0.1875 0.25
v -1.5625 0.3875 0.5
v -1 0.3875 0.375
v -1.5625 0.1875 0.3333333333333333
v -1 0.1875 0.16666666666666666
v -1.5625 0.3875 0.41666666666666663
v -1.5625 0.1875 0.25
vt 0.82421953125 0.7
vt 0.84505234375 0.7
vt 0.8033851562500001 0.75
vt 0.78255234375 0.75
vt 0.0018299005460486184 0.10906250000000006
vt 0.022662713046048624 0.10906250000000006
vt 0.08516271304604861 0.359375
vt 0.04349708804604861 0.359375
vt 0.515625 0.7057296875000001
vt 0.515625 0.6640625
vt 0.765625 0.7265625
vt 0.765625 0.7473953125
vt 0.765625 0.1484375
vt 0.765625 0.4021929756567457
vt 0.6875 0.4059561752775387
vt 0.6979443646770706 0.15281645342091543
vt 0.0961959328745462 0.1010374059256618
vt 0.2559825994539514 0.35671524356896944
vt 0.20242586086818665 0.35745759723813186
vt 0.03401307190931904 0.11083709839988676
vt 0.0226624927276122 0.10906161762466227
vt 0.20242586086818665 0.35745759723813186
vt 0.08516271304604861 0.359375
vt 0.03284147503311666 0.10912143412146347
vt 0.81380234375 0.75
vt 0.8033851562500001 0.75
vt 0.84505234375 0.7
vt 0.86588515625 0.7
vt 0.515625 0.6640625
vt 0.765625 0.7057296875000001
vt 0.765625 0.7265625
vt 0.515625 0.5390625
vt 0.8450523437499999 0.296875
vt 0.80338515625 0.24687499999999996
vt 0.82421796875 0.24687499999999996
vt 0.86588515625 0.296875
vt 0.5788997869539514 0.515625
vt 0.6413997869539514 0.26531250000000006
vt 0.6622325994539514 0.26531250000000006
vt 0.6205654119539514 0.515625
vt 0.265625 0.7265625
vt 0.515625 0.6640625
vt 0.515625 0.7057296875000001
vt 0.265625 0.7473953125
vt 0.9296875 0.765625
vt 0.925924300379207 0.8406452645702627
vt 0.6721688247224613 0.8406452645702627
vt 0.6765477781433766 0.7760693646770704
vt 0.46163663913181335 0.5137075972381318
vt 0.4080799005460486 0.5129652435689693
vt 0.5678665671254538 0.2572874059256618
vt 0.630049428090681 0.26708709839988676
vt 0.5788997869539514 0.515625
vt 0.46163663913181335 0.5137075972381318
vt 0.6414000072723878 0.26531161762466227
vt 0.6312210249668834 0.26537143412146347
vt 0.80338515625 0.24687499999999996
vt 0.8450523437499999 0.296875
vt 0.83463515625 0.296875
vt 0.78255234375 0.24687499999999996
vt 0.265625 0.7265625
vt 0.265625 0.7057296875000001
vt 0.515625 0.6640625
vt 0.515625 0.5390625
vn 1 0 0
vn 0.03198362857218419 0.9994883928807561 0
vn 0 -1 0
vn -0.10590351170904488 -0.5515807901512755 0.8273711852269131
vn 0.24510856435163822 0.9427252475063007 -0.22625405940151233
vn 0.06523200381509225 0.9749348396277376 -0.21271305591877912
vn 0.05681336748543691 0.6391503842111655 -0.7669804610533989
vn 0 1 0
vn -1 0 0
vn -0.0319836285721842 0.9994883928807561 0
vn 0 -1 0
vn 0.1059035117090449 -0.5515807901512753 0.8273711852269131
vn -0.24510856435163822 0.9427252475063007 -0.22625405940151233
vn -0.06523200381509225 0.9749348396277376 -0.21271305591877912
vn -0.056813367485436896 0.6391503842111655 -0.7669804610533989
vn 0 1 0
usemtl m_9c556b56-2589-5b56-c0cb-6db10339b833
f 51/137/35 54/138/35 53/139/35 49/140/35
f 49/141/36 53/142/36 47/143/36 43/144/36
f 46/145/37 48/146/37 54/147/37 51/148/37
f 49/149/38 43/150/38 46/151/38 51/152/38
f 52/153/39 45/154/39 44/155/39 50/156/39
f 53/157/40 44/158/40 47/159/40 50/160/40
f 50/161/41 53/162/41 54/163/41 52/164/41
f 48/165/42 52/166/42 54/167/42 45/168/42
f 59/169/43 60/170/43 57/171/43 55/172/43
f 47/173/44 59/174/44 55/175/44 43/176/44
f 60/177/45 48/178/45 46/179/45 57/180/45
f 46/181/46 43/182/46 55/183/46 57/184/46
f 44/185/47 45/186/47 58/187/47 56/188/47
f 47/189/48 44/190/48 59/191/48 56/192/48
f 60/193/49 59/194/49 56/195/49 58/196/49
f 60/197/50 58/198/50 48/199/50 45/200/50