{"asset":{"version":"2.0","generator":"Blockbench 5.0.7 glTF exporter"},"scenes":[{"nodes":[0,1],"name":"blockbench_export"}],"scene":0,"nodes":[{"translation":[0,0,-0.25],"name":"outer","mesh":0},{"translation":[0,0,-0.25],"name":"inner","mesh":1}],"bufferViews":[{"buffer":0,"byteOffset":0,"byteLength":912,"target":34962,"byteStride":12},{"buffer":0,"byteOffset":912,"byteLength":912,"target":34962,"byteStride":12},{"buffer":0,"byteOffset":1824,"byteLength":608,"target":34962,"byteStride":8},{"buffer":0,"byteOffset":2432,"byteLength":204,"target":34963},{"buffer":0,"byteOffset":2636,"byteLength":912,"target":34962,"byteStride":12},{"buffer":0,"byteOffset":3548,"byteLength":912,"target":34962,"byteStride":12},{"buffer":0,"byteOffset":4460,"byteLength":608,"target":34962,"byteStride":8},{"buffer":0,"byteOffset":5068,"byteLength":204,"target":34963}],"buffers":[{"byteLength":5272,"uri":"data:application/octet-stream;base64,"}],"accessors":[{"bufferView":0,"componentType":5126,"count":76,"max":[0.25,4,0.5],"min":[-0.375,0,0],"type":"VEC3"},{"bufferView":1,"componentType":5126,"count":76,"max":[0,1,1],"min":[-1,-1,-1],"type":"VEC3"},{"bufferView":2,"componentType":5126,"count":76,"max":[0.8125,0.796875],"min":[0,0],"type":"VEC2"},{"bufferView":3,"componentType":5123,"count":102,"max":[75],"min":[0],"type":"SCALAR"},{"bufferView":4,"componentType":5126,"count":76,"max":[0.0625,4,0.3125],"min":[-0.4375,0,0.1875],"type":"VEC3"},{"bufferView":5,"componentType":5126,"count":76,"max":[0,1,1],"min":[-1,-1,-1],"type":"VEC3"},{"bufferView":6,"componentType":5126,"count":76,"max":[0.8125,1],"min":[0,0],"type":"VEC2"},{"bufferView":7,"componentType":5123,"count":102,"max":[75],"min":[0],"type":"SCALAR"}],"materials":[{"pbrMetallicRoughness":{"metallicFactor":0,"roughnessFactor":1,"baseColorTexture":{"index":0}},"alphaMode":"MASK","alphaCutoff":0.05,"doubleSided":true}],"textures":[{"sampler":0,"source":0,"name":"texture"}],"samplers":[{"magFilter":9728,"minFilter":9728,"wrapS":33071,"wrapT":33071}],"images":[{"mimeType":"image/png","name":"wall_bracing_emission.png","uri":"wall_bracing_emission.png"}],"meshes":[{"primitives":[{"mode":4,"attributes":{"POSITION":0,"NORMAL":1,"TEXCOORD_0":2},"indices":3,"material":0}]},{"primitives":[{"mode":4,"attributes":{"POSITION":4,"NORMAL":5,"TEXCOORD_0":6},"indices":7,"material":0}]}]}